<svg xmlns="http://www.w3.org/2000/svg" width="88" height="80" viewBox="0 0 88 80">
    <defs>
        <clipPath id="clip-path">
            <path id="Rectangle_5264" fill="none" stroke="#707070" d="M0 0H88V80H0z" transform="translate(105 32)"/>
        </clipPath>
        <style>
            .cls-5{fill-rule:evenodd;fill:#fff}
        </style>
    </defs>
    <g id="Cplusplus" clip-path="url(#clip-path)" transform="translate(-105 -32)">
        <g id="icons8-c_" transform="translate(115 37)">
            <path id="Path_16898" fill="#00549d" fill-rule="evenodd" d="M32.281 3.436a3.423 3.423 0 0 1 3.342 0l25.611 14.376a3.23 3.23 0 0 1 1.666 2.812v28.75a3.234 3.234 0 0 1-1.672 2.814L35.617 66.564a3.424 3.424 0 0 1-3.342 0L6.664 52.188A3.233 3.233 0 0 1 5 49.375V20.626a3.234 3.234 0 0 1 1.672-2.814z"/>
            <path id="Path_16899" fill="#0086d4" fill-rule="evenodd" d="M5.463 50.854A2.62 2.62 0 0 1 5 49.1V20.518a3.211 3.211 0 0 1 1.667-2.8c5.094-2.85 20.427-11.437 25.521-14.291a3.673 3.673 0 0 1 3.461.012c5.094 2.853 20.375 11.366 25.469 14.219a3.189 3.189 0 0 1 1.006.878z"/>
            <path id="Path_16900" d="M31.333 10A21.333 21.333 0 1 1 10 31.333 21.343 21.343 0 0 1 31.333 10zm0 10.667a10.667 10.667 0 1 1-10.666 10.666 10.672 10.672 0 0 1 10.666-10.666z" class="cls-5" transform="translate(2.619 3.667)"/>
            <path id="Path_16901" fill="#0075c0" fill-rule="evenodd" d="M52.381 13.205a3.5 3.5 0 0 1 .771 2.718c0 5.783-.049 22.231.014 28.014a3.31 3.31 0 0 1-.492 1.717l-29.08-16z" transform="translate(9.739 5.346)"/>
            <path id="Path_16902" d="M31 21h3.048v9.143H31zm10.667 0h3.048v9.143h-3.048z" class="cls-5" transform="translate(13.619 9.429)"/>
            <path id="Path_16903" d="M29 23h9.143v3.048H29zm10.667 0h9.143v3.048h-9.143z" class="cls-5" transform="translate(12.571 10.476)"/>
        </g>
    </g>
</svg>
