<svg xmlns="http://www.w3.org/2000/svg" width="88" height="80" viewBox="0 0 88 80">
    <defs>
        <clipPath id="ppkfp14jya">
            <path fill="none" stroke="#707070" d="M0 0H88V80H0z" transform="translate(104 32)"/>
        </clipPath>
    </defs>
    <g clip-path="url(#ppkfp14jya)" transform="translate(-104 -32)">
        <g>
            <path fill="#f7df1e" d="M0 0H64V64H0z" transform="translate(115.6 39.6) translate(.4 .4)"/>
            <path d="M134.6 259.434l4.948-2.991c.959 1.691 1.818 3.118 3.9 3.118 1.994 0 3.256-.783 3.256-3.812V235.1h6.071v20.737c0 6.286-3.685 9.151-9.062 9.151a9.448 9.448 0 0 1-9.113-5.553" transform="translate(115.6 39.6) translate(-117.522 -205.338)"/>
            <path d="M304.8 256.244l4.948-2.865c1.3 2.12 2.991 3.686 5.983 3.686 2.512 0 4.115-1.262 4.115-2.991 0-2.083-1.653-2.815-4.43-4.039l-1.515-.656c-4.38-1.868-7.283-4.2-7.283-9.151 0-4.556 3.471-8.027 8.9-8.027 3.862 0 6.639 1.351 8.633 4.859l-4.733 3.042c-1.035-1.868-2.171-2.6-3.9-2.6a2.636 2.636 0 0 0-2.9 2.6c0 1.817 1.123 2.562 3.736 3.685l1.514.656c5.162 2.209 8.065 4.468 8.065 9.542 0 5.465-4.291 8.456-10.059 8.456-5.654.013-9.289-2.688-11.069-6.2" transform="translate(115.6 39.6) translate(-266.241 -202.804)"/>
        </g>
    </g>
</svg>
