<svg xmlns="http://www.w3.org/2000/svg" width="231.018" height="105.159" viewBox="0 0 231.018 105.159"> <defs> <style> .cls-1 { fill: #332938; } .cls-2 { fill: #dad9e9; } .cls-3 { fill: #3a365c; } .cls-4 { fill: #928cbe; } .cls-5 { fill: #7973af; } .cls-6 { fill: #ffffff; } .cls-7 { fill: #655ea1; } </style> </defs> <g id="Practice" transform="translate(.018)"> <g id="Group_18510" transform="translate(.591 .59)"> <g id="Group_18500" transform="translate(.825 .825)"> <path id="Rectangle_3960" d="M12.3 0h203.549a12.3 12.3 0 0 1 12.3 12.3H0A12.3 12.3 0 0 1 12.3 0z" class="cls-1"/> </g> <g id="Group_18506"> <g id="Group_18505"> <path id="Path_15727" d="M870.366 327.107H655.842c-4.212 0-7.638-2.148-7.638-4.788v-94.4c0-2.64 3.427-4.788 7.638-4.788h214.524c4.212 0 7.638 2.148 7.638 4.788v94.4c-.004 2.64-3.426 4.788-7.638 4.788z" class="cls-1" transform="translate(-648.204 -223.129)"/> <path id="Path_15728" d="M881.115 363.444H652.139v85.871c0 1.55 2.009 2.807 4.487 2.807H875.8c2.933 0 5.31-1.487 5.31-3.322z" class="cls-2" transform="translate(-651.727 -348.735)"/> <path id="Path_15729" d="M850.117 363.444H652.138v85.871c0 1.55 2.1 2.807 4.694 2.807h193.285z" class="cls-3" transform="translate(-651.726 -348.735)"/> <g id="Group_18501" transform="translate(209.766 24.05)"> <path id="Path_15730" d="M1844.3 454.417h-12.019a.932.932 0 0 1-.932-.932.932.932 0 0 1 .932-.932h12.019a.932.932 0 0 1 .932.932.932.932 0 0 1-.932.932z" class="cls-4" transform="translate(-1831.347 -452.554)"/> <path id="Path_15731" d="M1839.718 513.2h-7.439a.932.932 0 0 1-.932-.932.932.932 0 0 1 .932-.932h7.439a.932.932 0 0 1 .932.932.932.932 0 0 1-.932.932z" class="cls-4" transform="translate(-1831.347 -505.175)"/> <path id="Path_15732" d="M1843.922 571.983h-11.643a.932.932 0 0 1-.932-.932.932.932 0 0 1 .932-.932h11.643a.932.932 0 0 1 .932.932.932.932 0 0 1-.932.932z" class="cls-4" transform="translate(-1831.347 -557.796)"/> <path id="Path_15733" d="M1836.888 630.766h-4.609a.932.932 0 0 1-.932-.932.932.932 0 0 1 .932-.932h4.609a.932.932 0 0 1 .932.932.932.932 0 0 1-.932.932z" class="cls-4" transform="translate(-1831.347 -610.417)"/> <path id="Path_15734" d="M1845.374 689.549h-13.095a.932.932 0 0 1-.932-.932.932.932 0 0 1 .932-.932h13.095a.932.932 0 0 1 .932.932.932.932 0 0 1-.932.932z" class="cls-4" transform="translate(-1831.347 -663.038)"/> </g> <g id="Group_18504" transform="translate(14.392 23.442)"> <g id="Group_18503"> <path id="Rectangle_3999" d="M0 0H4.27V2.634H0z" class="cls-5"/> <path id="Rectangle_4000" d="M0 0H4.27V2.634H0z" class="cls-5" transform="translate(0 5.655)"/> <path id="Rectangle_4001" d="M0 0H4.27V2.634H0z" class="cls-5" transform="translate(0 11.31)"/> <path id="Rectangle_4002" d="M0 0H4.27V2.634H0z" class="cls-5" transform="translate(0 16.965)"/> <path id="Rectangle_4003" d="M0 0H4.27V2.634H0z" class="cls-5" transform="translate(0 22.62)"/> <path id="Rectangle_4004" d="M0 0H4.27V2.634H0z" class="cls-5" transform="translate(0 28.275)"/> <path id="Rectangle_4005" d="M0 0H4.27V2.634H0z" class="cls-5" transform="translate(0 33.93)"/> <path id="Rectangle_4006" d="M0 0H4.27V2.634H0z" class="cls-5" transform="translate(0 39.585)"/> <path id="Rectangle_4009" d="M0 0H13.133V2.634H0z" class="cls-6" transform="translate(17.413)"/> <path id="Rectangle_4010" d="M0 0H22.211V2.634H0z" class="cls-5" transform="translate(17.413 5.049)"/> <path id="Rectangle_4011" d="M0 0H6.567V2.634H0z" class="cls-4" transform="translate(17.413 11.31)"/> <path id="Rectangle_4110" d="M0 0H6.567V2.634H0z" class="cls-4" transform="translate(26.794 11.31)"/> <path id="Rectangle_4012" d="M0 0H9.85V2.634H0z" class="cls-4" transform="translate(22.104 16.965)"/> <path id="Rectangle_4013" d="M0 0H9.85V2.634H0z" class="cls-4" transform="translate(22.104 22.62)"/> <path id="Rectangle_4014" d="M0 0H9.85V2.634H0z" class="cls-4" transform="translate(16.71 28.275)"/> <path id="Rectangle_4015" d="M0 0H3.83V2.634H0z" class="cls-4" transform="translate(22.104 33.93)"/> <path id="Rectangle_4016" d="M0 0H19.65V2.634H0z" class="cls-4" transform="translate(104.19 22.62)"/> <path id="Rectangle_4017" d="M0 0H9.85V2.634H0z" class="cls-6" transform="translate(33.986 22.62)"/> <path id="Rectangle_4018" d="M0 0H50.433V2.634H0z" class="cls-6" transform="translate(50.222 22.62)"/> <path id="Rectangle_4019" d="M0 0H5.628V2.634H0z" class="cls-7" transform="translate(33.517 16.965)"/> <path id="Rectangle_4020" d="M0 0H11.229V2.634H0z" class="cls-5" transform="translate(78.613 16.965)"/> <path id="Rectangle_4021" d="M0 0H49.406V2.634H0z" class="cls-7" transform="translate(91.947 16.965)"/> <path id="Rectangle_4022" d="M0 0H24.32V2.634H0z" class="cls-5" transform="translate(143.68 16.965)"/> <path id="Rectangle_4023" d="M0 0H34.785V2.634H0z" class="cls-6" transform="translate(40.552 16.965)"/> <path id="Rectangle_4024" d="M0 0H11.886V2.634H0z" class="cls-7" transform="translate(27.888 33.93)"/> <path id="Rectangle_4025" d="M0 0H8.757V2.634H0z" class="cls-5" transform="translate(60.26 33.93)"/> <path id="Rectangle_4028" d="M0 0H17.436V2.634H0z" class="cls-6" transform="translate(41.182 33.93)"/> <path id="Rectangle_4029" d="M0 0H8.266V2.634H0z" class="cls-5" transform="translate(78.004 5.049)"/> <path id="Rectangle_4030" d="M0 0H31.195V2.634H0z" class="cls-7" transform="translate(42.599 5.049)"/> <path id="Rectangle_4109" d="M0 0H31.195V2.634H0z" class="cls-7" transform="translate(90.482 5.049)"/> <path id="Rectangle_4031" d="M0 0H6.567V2.634H0z" class="cls-4" transform="translate(22.104 39.585)"/> <path id="Rectangle_4033" d="M0 0H12.508V2.634H0z" class="cls-7" transform="translate(30.624 39.585)"/> <path id="Rectangle_4034" d="M0 0H9.695V2.634H0z" class="cls-6" transform="translate(33.361)"/> </g> </g> <path id="Rectangle_4040" d="M4 0h220.976a4 4 0 0 1 4 4v10.948H0V4a4 4 0 0 1 4-4z" class="cls-4" transform="translate(.412)"/> <path id="Rectangle_4248" d="M0 0h199v33H8a8 8 0 0 1-8-8V0z" class="cls-5" transform="translate(-.608 71.442)"/> <g id="Group_18715" transform="translate(66.425 26.377)"> <path id="Path_15929" fill="#423d69" d="M993.561 1518.432H962.4a3.417 3.417 0 0 1-3.417-3.417 3.417 3.417 0 0 1 3.417-3.417h31.166a3.417 3.417 0 0 1 3.417 3.417 3.417 3.417 0 0 1-3.422 3.417z" transform="translate(-1011.012 -1449.366)"/> <g id="Group_18707" transform="translate(-52.034 51.065)"> <path id="Path_15930" d="M1022.555 1482.612h-62.814a.763.763 0 0 1-.763-.763.763.763 0 0 1 .763-.763h62.813a.764.764 0 0 1 .763.763.763.763 0 0 1-.762.763z" class="cls-2" transform="translate(-958.978 -1481.085)"/> <path id="Path_15931" d="M999.236 1495.222h-39.495a.763.763 0 0 1-.763-.763.763.763 0 0 1 .763-.763h39.495a.763.763 0 0 1 .763.763.763.763 0 0 1-.763.763z" class="cls-2" transform="translate(-958.978 -1490.017)"/> </g> </g> </g> </g> <g id="Group_18507" transform="translate(211.625 4.952)"> <circle id="Ellipse_133" cx="1.878" cy="1.878" r="1.878" class="cls-2" transform="rotate(-45 3.206 1.328)"/> </g> <g id="Group_18508" transform="translate(204.003 4.952)"> <circle id="Ellipse_134" cx="1.878" cy="1.878" r="1.878" class="cls-2" transform="rotate(-45 3.206 1.328)"/> </g> <g id="Group_18509" transform="translate(219.325 5.349)"> <circle id="Ellipse_135" cx="1.878" cy="1.878" r="1.878" class="cls-3" transform="rotate(-76.7 2.31 1.828)"/> </g> </g> <g id="Group_18511"> <g id="Group_18714"> <path id="Path_15735" d="M868.191 322.655H647.949a5.385 5.385 0 0 1-5.379-5.379v-94.4a5.385 5.385 0 0 1 5.379-5.379h220.242a5.385 5.385 0 0 1 5.379 5.379v94.4a5.385 5.385 0 0 1-5.379 5.379zM647.949 218.677a4.2 4.2 0 0 0-4.2 4.2v94.4a4.2 4.2 0 0 0 4.2 4.2h220.242a4.2 4.2 0 0 0 4.2-4.2v-94.4a4.2 4.2 0 0 0-4.2-4.2z" class="cls-2" transform="translate(-642.57 -217.496)"/> </g> </g> </g> </svg> 
