<svg xmlns="http://www.w3.org/2000/svg" width="104" height="56" viewBox="0 0 104 56">
    <defs>
        <style>
            .cls-2{fill:#7973af}.cls-3{fill:#fff}.cls-4{fill:#928cbe}.cls-5{fill:#655ea1}
        </style>
    </defs>
    <g id="Practice" transform="translate(-268 -10848)">
        <rect id="Rectangle_3945" width="104" height="56" fill="#3a365c" rx="8" transform="translate(268 10848)"/>
        <g id="Group_19582" transform="translate(19331.76 34220.164)">
            <path id="Rectangle_5125" d="M0 0H4.072V2.512H0z" class="cls-2" transform="translate(-19047.76 -23364.166)"/>
            <path id="Rectangle_5126" d="M0 0H4.072V2.512H0z" class="cls-2" transform="translate(-19047.76 -23358.771)"/>
            <path id="Rectangle_5127" d="M0 0H4.072V2.512H0z" class="cls-2" transform="translate(-19047.76 -23353.381)"/>
            <path id="Rectangle_5131" d="M0 0H4.072V2.512H0z" class="cls-2" transform="translate(-19047.76 -23347.986)"/>
            <path id="Rectangle_5136" d="M0 0H4.072V2.512H0z" class="cls-2" transform="translate(-19047.76 -23342.592)"/>
            <path id="Rectangle_5142" d="M0 0H4.072V2.512H0z" class="cls-2" transform="translate(-19047.76 -23337.201)"/>
            <path id="Rectangle_5144" d="M0 0H4.072V2.512H0z" class="cls-2" transform="translate(-19047.76 -23331.807)"/>
            <path id="Rectangle_5154" d="M0 0H4.072V2.512H0z" class="cls-2" transform="translate(-19047.76 -23326.412)"/>
            <path id="Rectangle_5128" d="M0 0H12.526V2.512H0z" class="cls-3" transform="translate(-19031.15 -23364.166)"/>
            <path id="Rectangle_5129" d="M0 0H21.183V2.512H0z" class="cls-2" transform="translate(-19031.15 -23359.352)"/>
            <path id="Rectangle_5130" d="M0 0H6.263V2.512H0z" class="cls-4" transform="translate(-19031.15 -23353.381)"/>
            <path id="Rectangle_5133" d="M0 0H6.263V2.512H0z" class="cls-4" transform="translate(-19022.203 -23353.381)"/>
            <path id="Rectangle_5132" d="M0 0H9.394V2.512H0z" class="cls-4" transform="translate(-19026.68 -23347.986)"/>
            <path id="Rectangle_5137" d="M0 0H9.394V2.512H0z" class="cls-4" transform="translate(-19026.68 -23342.592)"/>
            <path id="Rectangle_5143" d="M0 0H9.394V2.512H0z" class="cls-4" transform="translate(-19031.824 -23337.201)"/>
            <path id="Rectangle_5145" d="M0 0H3.653V2.512H0z" class="cls-4" transform="translate(-19026.68 -23331.807)"/>
            <path id="Rectangle_5138" d="M0 0H9.394V2.512H0z" class="cls-3" transform="translate(-19015.348 -23342.592)"/>
            <path id="Rectangle_5141" d="M0 0H24.102V2.512H0z" class="cls-3" transform="translate(-18999.861 -23342.592)"/>
            <path id="Rectangle_5134" d="M0 0H5.368V2.512H0z" class="cls-5" transform="translate(-19015.795 -23347.986)"/>
            <path id="Rectangle_5139" d="M0 0H33.176V2.512H0z" class="cls-3" transform="translate(-19009.082 -23347.986)"/>
            <path id="Rectangle_5146" d="M0 0H11.336V2.512H0z" class="cls-5" transform="translate(-19021.162 -23331.807)"/>
            <path id="Rectangle_5147" d="M0 0H8.352V2.512H0z" class="cls-2" transform="translate(-18990.287 -23331.807)"/>
            <path id="Rectangle_5148" d="M0 0H16.63V2.512H0z" class="cls-3" transform="translate(-19008.482 -23331.807)"/>
            <path id="Rectangle_5140" d="M0 0H29.751V2.512H0z" class="cls-5" transform="translate(-19007.131 -23359.352)"/>
            <path id="Rectangle_5155" d="M0 0H6.263V2.512H0z" class="cls-4" transform="translate(-19026.68 -23326.412)"/>
            <path id="Rectangle_5156" d="M0 0H11.929V2.512H0z" class="cls-5" transform="translate(-19018.553 -23326.412)"/>
            <path id="Rectangle_5135" d="M0 0H9.247V2.512H0z" class="cls-3" transform="translate(-19015.941 -23364.166)"/>
        </g>
    </g>
</svg>